<?xml version="1.0" encoding="UTF-8"?>
<!--Generator: Apple Native CoreSVG 341-->
<!DOCTYPE svg
PUBLIC "-//W3C//DTD SVG 1.1//EN"
       "http://www.w3.org/Graphics/SVG/1.1/DTD/svg11.dtd">
<svg version="1.1" xmlns="http://www.w3.org/2000/svg" xmlns:xlink="http://www.w3.org/1999/xlink" viewBox="0 0 267.627 150.806">
 <g>
  <rect height="150.806" opacity="0" width="267.627" x="0" y="0"/>
  <path d="M106.494 13.1104L108.911 13.1104C110.303 13.1104 111.035 13.8428 111.035 15.2344L111.035 16.333C111.035 19.9951 113.452 22.4854 117.188 22.4854L150.659 22.4854C154.321 22.4854 156.665 19.9951 156.665 16.333L156.665 15.2344C156.665 13.8428 157.397 13.1104 158.862 13.1104L161.279 13.1104L161.279 6.51855L106.494 6.51855ZM0 141.064C0 146.484 4.24805 150.806 9.59473 150.806L258.032 150.806C263.379 150.806 267.627 146.484 267.627 141.064C267.627 135.645 263.379 131.323 258.032 131.323L237.305 131.323L237.305 19.7021C237.305 6.81152 230.493 0.146484 217.603 0.146484L50.0244 0.146484C37.7197 0.146484 30.3223 6.81152 30.3223 19.7021L30.3223 131.323L9.59473 131.323C4.24805 131.323 0 135.645 0 141.064ZM43.2861 131.323L43.2861 23.1445C43.2861 16.4062 46.6553 13.1104 53.3203 13.1104L214.307 13.1104C220.972 13.1104 224.341 16.4062 224.341 23.1445L224.341 131.323Z" fill="white"/>
 </g>
</svg>
