<?xml version="1.0" encoding="UTF-8"?>
<!--Generator: Apple Native CoreSVG 341-->
<!DOCTYPE svg
PUBLIC "-//W3C//DTD SVG 1.1//EN"
       "http://www.w3.org/Graphics/SVG/1.1/DTD/svg11.dtd">
<svg version="1.1" xmlns="http://www.w3.org/2000/svg" xmlns:xlink="http://www.w3.org/1999/xlink" viewBox="0 0 20.3555 18.8525">
 <g>
  <rect height="18.8525" opacity="0" width="20.3555" x="0" y="0"/>
  <path d="M0 16.1895C0 17.9385 0.870117 18.8438 2.6543 18.8438L17.2266 18.8438C19.0723 18.8438 19.9863 17.9385 19.9863 16.1279L19.9863 2.72461C19.9863 0.914062 19.0723 0 17.2266 0L6.63574 0C4.79883 0 3.87598 0.914062 3.87598 2.72461L3.87598 6.91699L1.77539 6.91699C0.65918 6.91699 0 7.52344 0 8.56934ZM1.41504 16.1895L1.41504 8.8418C1.41504 8.5166 1.6084 8.33203 1.93359 8.33203L3.87598 8.33203L3.87598 16.1895C3.87598 16.9189 3.33984 17.4287 2.6543 17.4287C1.95996 17.4287 1.41504 16.8926 1.41504 16.1895ZM4.99219 17.4287C5.18555 17.0508 5.29102 16.6113 5.29102 16.1016L5.29102 2.80371C5.29102 1.88965 5.7832 1.41504 6.66211 1.41504L17.2002 1.41504C18.0791 1.41504 18.5713 1.88965 18.5713 2.80371L18.5713 16.0488C18.5713 16.9629 18.0791 17.4287 17.2002 17.4287Z" fill="white"/>
  <path d="M7.57617 5.23828L16.3037 5.23828C16.6113 5.23828 16.8486 4.99219 16.8486 4.68457C16.8486 4.38574 16.6113 4.15723 16.3037 4.15723L7.57617 4.15723C7.25977 4.15723 7.02246 4.38574 7.02246 4.68457C7.02246 4.99219 7.25977 5.23828 7.57617 5.23828ZM7.57617 8.33203L16.3037 8.33203C16.6113 8.33203 16.8486 8.09473 16.8486 7.7959C16.8486 7.48828 16.6113 7.25098 16.3037 7.25098L7.57617 7.25098C7.25977 7.25098 7.02246 7.48828 7.02246 7.7959C7.02246 8.09473 7.25977 8.33203 7.57617 8.33203ZM8.09473 14.5986L10.3711 14.5986C11.0391 14.5986 11.4434 14.1943 11.4434 13.5264L11.4434 11.4346C11.4434 10.7578 11.0391 10.3535 10.3711 10.3535L8.09473 10.3535C7.41797 10.3535 7.01367 10.7578 7.01367 11.4346L7.01367 13.5264C7.01367 14.1943 7.41797 14.5986 8.09473 14.5986ZM13.0254 11.4346L16.2949 11.4346C16.6113 11.4346 16.8398 11.2061 16.8398 10.9072C16.8398 10.5908 16.6113 10.3535 16.2949 10.3535L13.0254 10.3535C12.709 10.3535 12.4805 10.5908 12.4805 10.9072C12.4805 11.2061 12.709 11.4346 13.0254 11.4346ZM13.0254 14.5986L16.2949 14.5986C16.6113 14.5986 16.8398 14.3701 16.8398 14.0713C16.8398 13.7637 16.6113 13.5176 16.2949 13.5176L13.0254 13.5176C12.709 13.5176 12.4805 13.7637 12.4805 14.0713C12.4805 14.3701 12.709 14.5986 13.0254 14.5986Z" fill="white"/>
 </g>
</svg>
