<?xml version="1.0" encoding="UTF-8"?>
<!--Generator: Apple Native CoreSVG 341-->
<!DOCTYPE svg
PUBLIC "-//W3C//DTD SVG 1.1//EN"
       "http://www.w3.org/Graphics/SVG/1.1/DTD/svg11.dtd">
<svg version="1.1" xmlns="http://www.w3.org/2000/svg" xmlns:xlink="http://www.w3.org/1999/xlink" viewBox="0 0 16.541 16.8135">
 <g>
  <rect height="16.8135" opacity="0" width="16.541" x="0" y="0"/>
  <path d="M4.7373 16.8135L11.4346 16.8135C13.9043 16.8135 15.3809 15.3105 15.3809 12.7969L15.3809 4.03418C15.3809 1.52051 13.9043 0.0263672 11.4346 0.0263672L4.7373 0.0263672C2.26758 0.0263672 0.791016 1.52051 0.791016 4.03418L0.791016 12.7969C0.791016 15.3105 2.26758 16.8135 4.7373 16.8135ZM4.67578 15.4424C3.10254 15.4424 2.16211 14.4844 2.16211 12.8584L2.16211 4.0166C2.16211 2.39941 3.10254 1.44141 4.67578 1.44141L11.4961 1.44141C13.0781 1.44141 14.0098 2.39941 14.0098 4.0166L14.0098 12.8584C14.0098 14.4844 13.0781 15.4424 11.4961 15.4424ZM15.2227 7.49707L15.6182 7.49707C16.1807 7.49707 16.541 7.11035 16.541 6.50391L16.541 5.03613C16.541 4.41211 16.1807 4.02539 15.6182 4.02539L15.2227 4.02539Z" fill="white"/>
  <path d="M3.375 12.9727C3.375 13.7461 3.82324 14.2207 4.56152 14.2207L11.6191 14.2207C12.3486 14.2207 12.7969 13.7461 12.7969 12.9727L12.7969 11.4258C12.7969 10.6523 12.3486 10.1689 11.6191 10.1689L4.56152 10.1689C3.82324 10.1689 3.375 10.6523 3.375 11.4258ZM4.35059 12.9199L4.35059 11.4785C4.35059 11.2764 4.47363 11.1445 4.67578 11.1445L11.5049 11.1445C11.707 11.1445 11.8213 11.2764 11.8213 11.4785L11.8213 12.9199C11.8213 13.1221 11.707 13.2451 11.5049 13.2451L4.67578 13.2451C4.47363 13.2451 4.35059 13.1221 4.35059 12.9199Z" fill="white"/>
 </g>
</svg>
